<?xml version="1.0" encoding="UTF-8"?>
<svg version="1.1" xmlns="http://www.w3.org/2000/svg" width="512" height="512">
<path d="M0 0 C1.07572266 -0.00322266 2.15144531 -0.00644531 3.25976562 -0.00976562 C8.32146414 0.02475309 12.30802425 0.07373711 16.9375 2.3125 C19.5959557 5.11087442 20.60652202 7.87657968 21.625 11.5625 C21.87636719 12.45453125 22.12773437 13.3465625 22.38671875 14.265625 C22.65935547 15.27882813 22.65935547 15.27882813 22.9375 16.3125 C23.783125 16.415625 24.62875 16.51875 25.5 16.625 C28.9375 17.3125 28.9375 17.3125 32.375 18.9375 C36.5131848 20.53469413 38.67280061 20.35855834 42.9375 19.3125 C43.576875 18.961875 44.21625 18.61125 44.875 18.25 C48.35068942 16.67014117 51.29211574 16.34708538 54.9375 17.3125 C58.68181774 20.02742345 61.7320821 23.30916663 64.875 26.6875 C65.73673828 27.57695313 66.59847656 28.46640625 67.48632812 29.3828125 C74.83891487 37.03089327 74.83891487 37.03089327 75.1875 41.5625 C74.9375 45.3125 74.9375 45.3125 73.375 48.3125 C71.50474075 52.21564974 71.92982576 54.13784956 72.9375 58.3125 C73.67585673 60.40773218 74.45965378 62.46597795 75.31640625 64.515625 C75.9375 66.3125 75.9375 66.3125 75.9375 69.3125 C76.60136719 69.48265625 77.26523437 69.6528125 77.94921875 69.828125 C79.27373047 70.19164063 79.27373047 70.19164063 80.625 70.5625 C81.49511719 70.79453125 82.36523438 71.0265625 83.26171875 71.265625 C86.51666432 72.53909276 88.45772693 73.83068512 90.9375 76.3125 C91.56860352 79.54882812 91.56860352 79.54882812 91.56640625 83.34375 C91.56881821 84.01668091 91.57123016 84.68961182 91.57371521 85.38293457 C91.57273833 86.80173655 91.55938187 88.22057738 91.53442383 89.63916016 C91.50009765 91.80633478 91.51376889 93.96943203 91.53320312 96.13671875 C91.5263043 97.51824646 91.51663155 98.89976368 91.50390625 100.28125 C91.48759155 102.15973633 91.48759155 102.15973633 91.47094727 104.07617188 C90.84886802 107.85021417 89.94290424 109.0267534 86.9375 111.3125 C84.5703125 112.05078125 84.5703125 112.05078125 82.0625 112.625 C77.70323148 114.24675168 75.91525653 116.29760064 73.89257812 120.49487305 C71.37309547 126.57226978 71.37309547 126.57226978 71.46875 133.05078125 C72.52460937 135.31793763 72.52460937 135.31793763 73.80859375 137.40234375 C75.69575546 140.59549972 75.65522395 142.72388025 74.9375 146.3125 C72.36070884 150.23119837 69.0673974 153.42654444 65.38807487 156.31151104 C60.60696862 160.30344501 57.47881197 163.57416766 56.82145047 169.97535765 C56.64537301 173.75869656 56.69307485 177.52062314 56.77392578 181.3059082 C56.77343169 183.01041329 56.76847185 184.71492199 56.75941467 186.41940308 C56.7495232 190.07428911 56.77095203 193.72713645 56.81726456 197.38173866 C56.89046952 203.17064199 56.89325064 208.95831951 56.88717651 214.74760437 C56.8858936 223.91200526 56.93195544 233.07546094 56.99809444 242.23960036 C57.11533465 258.63129714 57.1615443 275.02319892 57.17618358 291.41528577 C57.18330519 297.15898428 57.21404977 302.90191772 57.26480412 308.64539111 C57.29309892 312.23184377 57.3050763 315.81823238 57.31339836 319.40478134 C57.32078799 321.05547342 57.33506398 322.70615291 57.35711479 324.35671425 C57.54021012 338.45237016 55.84105833 351.49476705 45.9375 362.3125 C32.4480182 374.66202559 16.26401459 373.86818369 -0.86328125 373.703125 C-3.15398156 373.69565194 -5.44468832 373.68996405 -7.73539734 373.68597412 C-13.72445757 373.67080175 -19.71312131 373.63159311 -25.70202637 373.5871582 C-31.82929117 373.54602332 -37.95662089 373.52792439 -44.08398438 373.5078125 C-56.07702392 373.46508998 -68.06966675 373.39480965 -80.0625 373.3125 C-80.0625 383.8725 -80.0625 394.4325 -80.0625 405.3125 C-76.86949219 405.26609375 -73.67648437 405.2196875 -70.38671875 405.171875 C-67.26230455 405.14059701 -64.13790841 405.1163562 -61.01342773 405.09277344 C-58.85742263 405.07277309 -56.70147096 405.04556376 -54.5456543 405.01074219 C-51.43004088 404.96171147 -48.31515029 404.93941486 -45.19921875 404.921875 C-44.24979904 404.90122986 -43.30037933 404.88058472 -42.32218933 404.85931396 C-32.20269087 404.85599121 -22.6849705 407.98147506 -15.25390625 415.02734375 C-6.92954533 423.7670574 -6.55792731 432.85526633 -6.625 444.5625 C-6.60501953 445.81546875 -6.58503906 447.0684375 -6.56445312 448.359375 C-6.56509766 449.5659375 -6.56574219 450.7725 -6.56640625 452.015625 C-6.56455322 453.10520508 -6.5627002 454.19478516 -6.56079102 455.31738281 C-7.18436806 459.04003156 -8.38039224 460.69088647 -11.0625 463.3125 C-13.99723212 464.31173354 -16.71694009 464.43926471 -19.80147362 464.44392776 C-20.75670461 464.44776891 -21.7119356 464.45161005 -22.69611299 464.4555676 C-23.74259779 464.45470112 -24.78908259 464.45383463 -25.86727905 464.45294189 C-26.98127315 464.45591302 -28.09526725 464.45888414 -29.24301875 464.4619453 C-32.98933123 464.47064201 -36.7356118 464.47214136 -40.48193359 464.47363281 C-43.16241101 464.47826023 -45.8428855 464.48326411 -48.52336121 464.48867798 C-55.81461532 464.50225535 -63.10586393 464.50828486 -70.39712858 464.51268864 C-74.94944214 464.51545161 -79.50175358 464.51968902 -84.0540657 464.52419281 C-96.65753992 464.53638384 -109.26101243 464.54668404 -121.86449242 464.5500679 C-123.07425444 464.55039725 -123.07425444 464.55039725 -124.3084561 464.55073325 C-125.52110957 464.55106067 -125.52110957 464.55106067 -126.75826108 464.5513947 C-128.39645791 464.55183817 -130.03465474 464.55228473 -131.67285156 464.55273438 C-132.48545353 464.5529558 -133.29805549 464.55317723 -134.13528176 464.55340537 C-147.30654727 464.55735461 -160.47775749 464.5748132 -173.64900164 464.5980939 C-187.17088784 464.62180157 -200.69274629 464.63426946 -214.21465361 464.63543582 C-221.80709763 464.63635282 -229.39946959 464.6421115 -236.99189377 464.66025543 C-243.45592152 464.67564842 -249.91985493 464.68078159 -256.38389753 464.67251733 C-259.68188436 464.66860816 -262.9796412 464.67118242 -266.27761269 464.68357468 C-269.85315778 464.69622391 -273.42821243 464.69045524 -277.00375366 464.67999268 C-278.04577702 464.68804908 -279.08780038 464.69610548 -280.1614002 464.70440602 C-285.52365461 464.66761436 -289.47365393 464.42705025 -294.0625 461.3125 C-296.01001187 457.92570546 -296.31822437 454.97203453 -296.328125 451.109375 C-296.33070313 450.12839844 -296.33328125 449.14742188 -296.3359375 448.13671875 C-296.32820313 447.12222656 -296.32046875 446.10773438 -296.3125 445.0625 C-296.32410156 443.56396484 -296.32410156 443.56396484 -296.3359375 442.03515625 C-296.30859105 431.57514085 -294.96041367 423.45480344 -288.0625 415.3125 C-280.67605509 408.03919538 -271.03210584 404.85595516 -260.80281067 404.85931396 C-259.37868111 404.89028168 -259.37868111 404.89028168 -257.92578125 404.921875 C-256.92032761 404.92753479 -255.91487396 404.93319458 -254.87895203 404.93902588 C-251.71045525 404.96117295 -248.54314703 405.01132688 -245.375 405.0625 C-243.20900086 405.08259306 -241.04298376 405.10083887 -238.87695312 405.1171875 C-233.60465771 405.15754185 -228.33488751 405.23587265 -223.0625 405.3125 C-223.0625 394.7525 -223.0625 384.1925 -223.0625 373.3125 C-229.0025 373.3125 -234.9425 373.3125 -241.0625 373.3125 C-240.4025 374.6325 -239.7425 375.9525 -239.0625 377.3125 C-238.42695958 380.41958648 -238.4353751 382.35790032 -240.20703125 385.0546875 C-242.07154006 387.24128908 -244.03683516 389.2733532 -246.0625 391.3125 C-247.08481616 392.3605008 -248.10693878 393.40869042 -249.12890625 394.45703125 C-258.73063571 404.22370905 -258.73063571 404.22370905 -263.8125 404.5625 C-267.89645294 404.54038473 -270.42119311 403.13315345 -274.0625 401.3125 C-276.89250856 401.26632909 -276.89250856 401.26632909 -280.0625 402.3125 C-280.93648438 402.49296875 -281.81046875 402.6734375 -282.7109375 402.859375 C-285.88248521 403.69265027 -288.29716548 404.53387749 -291.0625 406.3125 C-292.82192256 409.3382053 -293.88065772 412.181784 -294.8671875 415.53515625 C-296.37646173 419.04199933 -297.66000106 419.6705792 -301.0625 421.3125 C-303.9375 421.70068359 -303.9375 421.70068359 -307.0625 421.7109375 C-308.196875 421.71480469 -309.33125 421.71867187 -310.5 421.72265625 C-311.675625 421.71105469 -312.85125 421.69945312 -314.0625 421.6875 C-315.238125 421.69910156 -316.41375 421.71070313 -317.625 421.72265625 C-318.759375 421.71878906 -319.89375 421.71492188 -321.0625 421.7109375 C-322.09375 421.70755371 -323.125 421.70416992 -324.1875 421.70068359 C-327.48993748 421.25478723 -329.37542967 420.2496626 -332.0625 418.3125 C-334.80003131 414.46385305 -336.47695924 409.99682606 -337.0625 405.3125 C-337.908125 405.209375 -338.75375 405.10625 -339.625 405 C-343.0625 404.3125 -343.0625 404.3125 -346.5625 402.6875 C-350.46344545 401.15498572 -352.09074244 401.19004678 -356.0625 402.3125 C-356.84625 402.663125 -357.63 403.01375 -358.4375 403.375 C-362.2006655 404.71898768 -365.19612012 405.33756081 -369.0625 404.3125 C-373.00826943 401.57808407 -376.23469379 398.25639247 -379.5625 394.8125 C-380.4803125 393.925625 -381.398125 393.03875 -382.34375 392.125 C-389.64696942 384.73483749 -389.64696942 384.73483749 -389.75390625 379.84765625 C-389.0625 376.3125 -389.0625 376.3125 -387.5 373.25 C-385.61008273 369.38799515 -386.0618672 367.45797874 -387.0625 363.3125 C-387.80085673 361.21726782 -388.58465378 359.15902205 -389.44140625 357.109375 C-390.0625 355.3125 -390.0625 355.3125 -390.0625 352.3125 C-390.7225 352.23 -391.3825 352.1475 -392.0625 352.0625 C-396.87911882 350.8583453 -401.5278162 348.8471838 -405.0625 345.3125 C-405.48545126 340.93157797 -405.43409268 336.53573462 -405.43310547 332.13671875 C-405.43747037 329.95232711 -405.47375701 327.76997025 -405.51171875 325.5859375 C-405.5175887 324.1953194 -405.5215569 322.80469171 -405.5234375 321.4140625 C-405.53165527 320.14900879 -405.53987305 318.88395508 -405.54833984 317.58056641 C-404.98045986 313.76064604 -404.10167412 312.61043776 -401.0625 310.3125 C-398.6953125 309.57421875 -398.6953125 309.57421875 -396.1875 309 C-391.82823148 307.37824832 -390.04025653 305.32739936 -388.01757812 301.13012695 C-385.49809547 295.05273022 -385.49809547 295.05273022 -385.59375 288.57421875 C-386.64960937 286.30706237 -386.64960937 286.30706237 -387.93359375 284.22265625 C-389.82075546 281.02950028 -389.78022395 278.90111975 -389.0625 275.3125 C-387.08972706 272.28195736 -384.61887614 269.85567627 -382.0625 267.3125 C-381.15886719 266.36117188 -380.25523437 265.40984375 -379.32421875 264.4296875 C-370.66737512 255.43183888 -370.66737512 255.43183888 -366.0625 254.3125 C-364.05620639 254.605582 -362.05461522 254.93489163 -360.0625 255.3125 C-360.06434359 254.63203959 -360.06618717 253.95157919 -360.06808662 253.25049877 C-360.11234844 236.65638886 -360.14539673 220.06229777 -360.16612434 203.46814251 C-360.17641573 195.44317689 -360.19043496 187.41825079 -360.21337891 179.39331055 C-360.23337848 172.39483656 -360.24623196 165.39639121 -360.25067699 158.39788944 C-360.2532733 154.6958183 -360.25933067 150.99382905 -360.27396011 147.29178429 C-360.2901988 143.14850684 -360.2904755 139.00536976 -360.28955078 134.86206055 C-360.29674133 133.64860962 -360.30393188 132.43515869 -360.31134033 131.18493652 C-360.27887471 117.6922597 -358.34720857 104.77495839 -348.875 94.4375 C-339.04557124 85.56280604 -327.95514051 82.98727734 -315.09666443 83.07199097 C-313.65180281 83.06942769 -313.65180281 83.06942769 -312.17775208 83.06681263 C-308.97185831 83.06353609 -305.766177 83.07449112 -302.56030273 83.08544922 C-300.25358587 83.08601373 -297.94686864 83.08569599 -295.64015198 83.08456421 C-289.39291865 83.08399125 -283.14576238 83.09573642 -276.89854693 83.10971212 C-270.36425847 83.12222893 -263.82996816 83.12339074 -257.29566956 83.12576294 C-246.3330858 83.13093639 -235.37052899 83.14375525 -224.40795898 83.16162109 C-213.11987447 83.17999823 -201.83179764 83.19414574 -190.54370117 83.20263672 C-189.84710872 83.20316217 -189.15051626 83.20368761 -188.43281495 83.20422898 C-184.93797803 83.20683919 -181.44314106 83.20936657 -177.94830406 83.21185279 C-148.98635073 83.23256327 -120.02442604 83.26791887 -91.0625 83.3125 C-91.10117187 82.37792969 -91.13984375 81.44335938 -91.1796875 80.48046875 C-91.0625 77.3125 -91.0625 77.3125 -89.1875 74.625 C-86.07101952 72.31880444 -84.60122177 71.89630985 -80.9375 71.125 C-78.30378964 70.54501778 -78.30378964 70.54501778 -76.0625 69.3125 C-74.25509437 66.11827999 -73.73172629 62.88920523 -73.0625 59.3125 C-72.588125 58.301875 -72.11375 57.29125 -71.625 56.25 C-70.85363893 52.22178108 -72.3250327 50.07321447 -74.07421875 46.47265625 C-75.49150186 43.37480028 -75.84609122 41.66057158 -75.0625 38.3125 C-73.06062344 35.31986419 -70.59422219 32.86107225 -68.0625 30.3125 C-67.04018384 29.2644992 -66.01806122 28.21630958 -64.99609375 27.16796875 C-55.44906772 17.45693414 -55.44906772 17.45693414 -51.0625 17 C-47.59412383 16.98566787 -45.3808971 18.07125752 -42.3125 19.625 C-38.99910075 21.08634607 -37.62038511 21.46458401 -34.08203125 20.5 C-31.32637741 19.21863916 -28.70433337 17.81144373 -26.0625 16.3125 C-24.5775 15.8175 -24.5775 15.8175 -23.0625 15.3125 C-21.72230685 12.3293458 -20.69850426 9.28752996 -19.63671875 6.1953125 C-15.55297141 -1.28311315 -7.48865671 -0.11257752 0 0 Z " fill="#030303" transform="translate(413.0625,23.6875)"/>
<path d="M0 0 C61.65020801 -0.04030303 61.65020801 -0.04030303 87.39648438 -0.04882812 C93.28019209 -0.05078614 99.16389977 -0.05280666 105.04760742 -0.05493164 C105.78508168 -0.05519539 106.52255594 -0.05545914 107.2823779 -0.05573088 C119.20391367 -0.0600857 131.12544465 -0.06797254 143.04697757 -0.0771528 C155.27258626 -0.08648902 167.49819243 -0.09205554 179.72380453 -0.09408849 C187.2737296 -0.09546379 194.8236411 -0.09981472 202.37356199 -0.10791647 C208.15308919 -0.11380424 213.93260762 -0.11445904 219.71213722 -0.11310768 C222.09024006 -0.1133842 224.46834338 -0.11539186 226.84644318 -0.11920547 C230.07785956 -0.124136 233.30921657 -0.12300067 236.54063416 -0.12025452 C237.97202481 -0.12462378 237.97202481 -0.12462378 239.43233246 -0.12908131 C245.88587879 -0.11412121 245.88587879 -0.11412121 247 1 C246.67389181 4.39152521 246.27501701 7.35290116 244.9375 10.5 C243.56051975 14.17194732 243.29156604 16.07141166 244 20 C246.66938694 23.66745419 249.78481522 26.81037313 253 30 C253.67675781 30.70125 254.35351562 31.4025 255.05078125 32.125 C259.7287031 37.17530521 259.7287031 37.17530521 266.0625 39.375 C269.84020077 39.01521897 271.46735626 38.34186894 274.75 36.6875 C278.00128039 35.26785696 279.43377977 34.85559484 282.91015625 35.7421875 C285.72392618 37.02220666 288.35072714 38.40880847 291 40 C291.886875 40.45117188 292.77375 40.90234375 293.6875 41.3671875 C296.50489615 43.35649762 297.09692749 44.82888107 298.1875 48.0625 C299.47534117 51.90235948 299.47534117 51.90235948 302 55 C311.9 55.33 321.8 55.66 332 56 C332 96.59 332 137.18 332 179 C248.18 179 164.36 179 78 179 C72.3373494 166.54216867 72.3373494 166.54216867 74 161 C74.350625 160.175 74.70125 159.35 75.0625 158.5 C76.4316546 154.84892107 76.61251414 152.92477214 76 149 C73.40421547 145.4961684 70.30163271 142.59917661 67.125 139.625 C66.28324219 138.80644531 65.44148438 137.98789062 64.57421875 137.14453125 C59.78167016 132.04999715 59.78167016 132.04999715 53.5 129.6875 C49.94223803 130.00515732 48.61416365 130.72476591 45.5625 132.375 C40.69303304 134.43231279 37.01860129 133.78905756 32.1875 132 C28.01977658 130.29488246 25.55573319 128.85834904 23.0703125 125.01953125 C21.8125 121.8125 21.8125 121.8125 20.95703125 118.70703125 C20.10506468 115.50144374 20.10506468 115.50144374 16 113 C10.72 112.67 5.44 112.34 0 112 C0 75.04 0 38.08 0 0 Z " fill="#D7EBFD" transform="translate(96,150)"/>
<path d="M0 0 C3.96 0 7.92 0 12 0 C12.680625 2.5059375 12.680625 2.5059375 13.375 5.0625 C15.71645989 10.38213255 18.36412974 12.07010808 23.54541016 14.13061523 C26.67750134 15.23996243 29.83000609 16.27188622 32.99829102 17.27270508 C35 18 35 18 37.77734375 19.69921875 C40.39081378 21.22871879 41.60544797 21.24962943 44.5625 20.8125 C45.30628906 20.71582031 46.05007813 20.61914062 46.81640625 20.51953125 C49.04711066 20.0908378 49.04711066 20.0908378 51.02734375 18.88671875 C53 18 53 18 55.04296875 18.19921875 C57.2654511 19.10861772 58.60034219 20.13433043 60.3125 21.8125 C60.84488281 22.31394531 61.37726563 22.81539062 61.92578125 23.33203125 C63 25 63 25 62.734375 27.0546875 C62.19030593 28.49589173 61.58065096 29.91270086 60.9375 31.3125 C59.32944053 35.92227048 59.23230444 39.26360342 61.23828125 43.80078125 C62.29930637 45.87280798 63.3792138 47.93526033 64.4765625 49.98828125 C66.15779144 53.31194154 67.28105763 56.57774113 68.26171875 60.16015625 C69.5151309 63.28373892 71.3078389 64.64256275 74.26171875 66.16796875 C75.06222656 66.50441406 75.86273438 66.84085937 76.6875 67.1875 C78.110625 67.785625 79.53375 68.38375 81 69 C81 72.96 81 76.92 81 81 C78.49348958 81.91145833 75.98697917 82.82291667 73.48046875 83.734375 C68.33337413 86.3606091 67.25398077 90.66993597 65.5 95.9375 C64.02997313 100.342869 62.3946841 104.03850831 60 108 C59.3221292 113.87488026 60.93960638 118.59146674 63 124 C60.83580851 126.56757629 58.66249669 128.9428597 56 131 C52.66149808 131.06546082 50.91970835 130.5340242 48.0625 128.875 C44.71974901 127.45686322 42.5056031 128.15187022 39 129 C36.4969137 130.16530236 34.07012752 131.43745508 31.6328125 132.734375 C28.22946801 134.3704041 24.78563826 135.32265122 21.12890625 136.2265625 C17.65348042 137.48919427 16.39143904 139.16868298 14.83203125 142.48046875 C14.49558594 143.37378906 14.15914063 144.26710937 13.8125 145.1875 C13.214375 146.775625 12.61625 148.36375 12 150 C8.04 150 4.08 150 0 150 C-4 140.25 -4 140.25 -4 138 C-4.82177734 137.79697266 -4.82177734 137.79697266 -5.66015625 137.58984375 C-12.04338023 135.85651301 -17.74186033 133.36117745 -23.55688477 130.24975586 C-28.11270679 127.95512902 -31.07456368 127.80044724 -36 129 C-37.051875 129.556875 -37.051875 129.556875 -38.125 130.125 C-40 131 -40 131 -42.375 131.0625 C-46.3547949 129.45163064 -48.44752651 126.35944106 -51 123 C-50.69964844 122.41992188 -50.39929688 121.83984375 -50.08984375 121.2421875 C-49.70957031 120.46101563 -49.32929688 119.67984375 -48.9375 118.875 C-48.55464844 118.10929687 -48.17179687 117.34359375 -47.77734375 116.5546875 C-46.11284934 111.08443955 -48.45280836 106.6425861 -50.875 101.75 C-52.88850933 97.60927729 -54.35648309 93.87157608 -55.3125 89.375 C-56.10493684 86.41176647 -56.41532229 85.35124706 -59.07421875 83.75390625 C-61.38131725 82.97744315 -63.60973259 82.44601004 -66 82 C-66.99 81.67 -67.98 81.34 -69 81 C-69 77.04 -69 73.08 -69 69 C-66.215625 68.01 -66.215625 68.01 -63.375 67 C-58.24024067 64.49007641 -56.15181557 62.27176666 -54.15673828 57.09960938 C-53.45898458 55.00208502 -52.80957692 52.89729966 -52.18359375 50.77734375 C-51 47 -51 47 -49.3671875 44.2890625 C-47.8518622 41.751975 -47.62145946 40.35852397 -47.6875 37.4375 C-47.69330078 36.32181641 -47.69330078 36.32181641 -47.69921875 35.18359375 C-48.03190709 32.76836282 -48.87612064 31.14477375 -50 29 C-50 25.10669775 -48.57813123 23.34061649 -45.9375 20.6875 C-44.968125 19.800625 -43.99875 18.91375 -43 18 C-37.25 19.875 -37.25 19.875 -35 21 C-29.37553903 21.47971299 -25.47785288 20.22437457 -20.5625 17.6875 C-16.55658613 15.67814699 -12.74677007 13.82420636 -8.375 12.75 C-2.98068477 9.95294766 -2.09765081 5.57188496 0 0 Z " fill="#040302" transform="translate(407,41)"/>
<path d="M0 0 C3.96 0 7.92 0 12 0 C12.680625 2.5059375 12.680625 2.5059375 13.375 5.0625 C15.71645989 10.38213255 18.36412974 12.07010808 23.54541016 14.13061523 C26.67690201 15.23975015 29.82891221 16.2712877 32.99633789 17.27270508 C35 18 35 18 37.80859375 19.69921875 C40.27586987 21.16375163 41.27999927 21.2827039 44.0625 20.8125 C44.75085938 20.69777344 45.43921875 20.58304687 46.1484375 20.46484375 C48.11468769 20.04568694 48.11468769 20.04568694 50.1875 18.875 C52 18 52 18 54.4375 18.0625 C58.03143628 19.37735474 59.72784388 20.92590643 62 24 C61.93839546 27.51145862 61.56103361 29.97143839 59.875 33.0625 C58.56648794 35.95991955 59.31354533 37.92747296 60 41 C60.87105632 43.11197654 61.81314152 45.19562256 62.8125 47.25 C64.78581754 51.30780789 66.38366419 55.18830534 67.6875 59.5 C69.3489236 63.9160783 71.50500546 65.18412127 75.75 67.125 C77.4825 67.74375 79.215 68.3625 81 69 C81 72.96 81 76.92 81 81 C79.2675 81.474375 77.535 81.94875 75.75 82.4375 C71.63517549 83.90915965 71.63517549 83.90915965 68.5546875 86.84765625 C67.53926501 89.1984873 66.7654793 91.55621632 66 94 C65.1215255 96.17376272 64.22519557 98.3403823 63.3125 100.5 C62.89613281 101.5209375 62.47976562 102.541875 62.05078125 103.59375 C61 106 61 106 60 107 C59.80010237 108.99990516 59.80010237 108.99990516 59.8125 111.3125 C59.79832031 112.09238281 59.78414062 112.87226563 59.76953125 113.67578125 C60.02205635 116.2224327 60.77770372 117.77551444 62 120 C62.5 122.375 62.5 122.375 62 125 C60.3281178 127.49052797 58.52841821 129.37582247 56 131 C52.65289386 131 50.57742087 130.26650194 47.5625 128.875 C41.17785897 126.69487867 35.54131126 129.92883393 29.8515625 132.6875 C27.12349417 133.94315885 24.41060097 134.87153449 21.5625 135.8125 C17.84612567 137.25185768 16.24798011 138.49363993 14.4375 142.0625 C13.91729393 143.35928163 13.43365297 144.67176732 13 146 C12.67 146.99 12.34 147.98 12 149 C8.04 149 4.08 149 0 149 C-0.495 147.30875 -0.99 145.6175 -1.5 143.875 C-3.69377559 138.95006862 -5.81455394 137.15172544 -10.67041016 135.28222656 C-13.48469913 134.336646 -16.31338545 133.45173376 -19.15771484 132.60107422 C-21.46221501 131.84919516 -23.51405033 130.80959118 -25.625 129.625 C-29.21997731 127.894085 -31.08058551 127.40356736 -35 128 C-36.03125 128.515625 -37.0625 129.03125 -38.125 129.5625 C-41 131 -41 131 -42.9765625 130.78125 C-45.33952153 129.86891061 -46.52640587 128.77861191 -48.25 126.9375 C-48.77078125 126.38964844 -49.2915625 125.84179688 -49.828125 125.27734375 C-50.21484375 124.85582031 -50.6015625 124.43429687 -51 124 C-50.67515625 123.14728516 -50.67515625 123.14728516 -50.34375 122.27734375 C-47.38489885 114.13151128 -47.38489885 114.13151128 -48.94921875 105.80078125 C-49.80277912 104.12866456 -50.68629929 102.47161906 -51.59375 100.828125 C-53.16577614 97.66660576 -54.1308631 94.49114327 -55.1875 91.125 C-56.88033933 86.4821845 -56.88033933 86.4821845 -60.50390625 83.3203125 C-62.98949092 82.35153554 -65.41243545 81.63251578 -68 81 C-69 80 -69 80 -69.09765625 77.27734375 C-69.08605469 76.17519531 -69.07445313 75.07304687 -69.0625 73.9375 C-69.05347656 72.83277344 -69.04445313 71.72804688 -69.03515625 70.58984375 C-69.02355469 69.73519531 -69.01195313 68.88054687 -69 68 C-67.96939453 67.65388672 -67.96939453 67.65388672 -66.91796875 67.30078125 C-66.01691406 66.97464844 -65.11585937 66.64851563 -64.1875 66.3125 C-63.29417969 65.99925781 -62.40085937 65.68601562 -61.48046875 65.36328125 C-56.59791585 62.67979942 -55.33894823 57.56656105 -53.5 52.5625 C-52.25970895 49.19542782 -51.002577 46.00503686 -49.3671875 42.80859375 C-47.63428813 39.24872333 -47.57982017 36.92167839 -48 33 C-48.53625 31.948125 -49.0725 30.89625 -49.625 29.8125 C-51 27 -51 27 -50.5 24.9375 C-48.44778086 22.28671695 -46.6400477 20.10003794 -44 18 C-40.82557782 18.06478413 -38.80428854 18.53299375 -36.0625 20.125 C-31.96115252 21.8649656 -27.72027362 20.28949626 -23.75390625 18.6953125 C-22.70074219 18.17710937 -21.64757812 17.65890625 -20.5625 17.125 C-16.86536166 15.33386623 -13.28709954 13.6885041 -9.375 12.4375 C-5.48832563 10.78206462 -4.67612349 9.7933321 -3 6 C-2.443125 4.906875 -1.88625 3.81375 -1.3125 2.6875 C-0.879375 1.800625 -0.44625 0.91375 0 0 Z " fill="#030302" transform="translate(93,279)"/>
<path d="M0 0 C0.0700903 22.95701665 0.12298831 45.91401564 0.15543652 68.87111759 C0.17090343 79.53056986 0.19198965 90.18995564 0.22631836 100.84936523 C0.25622602 110.14042643 0.27557628 119.43143947 0.28226548 128.72254747 C0.28617541 133.64182938 0.29536074 138.56097352 0.31719017 143.48021126 C0.33757685 148.11192232 0.34382936 152.74343906 0.33932304 157.37519073 C0.34014727 159.07350916 0.34609992 160.77183418 0.35761642 162.47011375 C0.37259494 164.79318416 0.36893446 167.11552578 0.36076355 169.43861389 C0.36352893 170.73742021 0.36629431 172.03622652 0.36914349 173.3743906 C-0.32194188 180.16201026 -3.21734917 185.10865256 -8 190 C-13.96527503 194.27677754 -18.64252753 194.5645909 -25.86424255 194.48101807 C-26.94828135 194.48443577 -28.03232015 194.48785347 -29.14920861 194.49137473 C-32.77609361 194.4979553 -36.40223608 194.47597346 -40.02905273 194.45410156 C-42.63103722 194.45297313 -45.23302297 194.45360686 -47.83500671 194.45587158 C-53.43402712 194.45796595 -59.03286063 194.44544795 -64.63183403 194.42292023 C-72.72691235 194.39037056 -80.82190059 194.37999019 -88.91703726 194.37496826 C-102.05175766 194.36622025 -115.18637854 194.33961811 -128.32104492 194.30175781 C-141.0778758 194.26502492 -153.83467962 194.23671943 -166.59155273 194.21972656 C-167.3782805 194.21867567 -168.16500827 194.21762477 -168.97557627 194.21654204 C-172.92247647 194.21132177 -176.86937687 194.20626697 -180.81627738 194.20129442 C-213.54425738 194.15984776 -246.27211536 194.08941283 -279 194 C-278.66577148 191.59228516 -278.66577148 191.59228516 -278 189 C-275.34765625 187.5234375 -275.34765625 187.5234375 -272.0625 186.375 C-267.21524908 184.79335174 -267.21524908 184.79335174 -264 181 C-263.6336141 178.58286521 -263.6336141 178.58286521 -263.5859375 175.89453125 C-263.54726563 174.91162109 -263.50859375 173.92871094 -263.46875 172.91601562 C-263.42234375 171.37977539 -263.42234375 171.37977539 -263.375 169.8125 C-263.33632813 168.77673828 -263.29765625 167.74097656 -263.2578125 166.67382812 C-263.16351704 164.11606378 -263.07791798 161.55830713 -263 159 C-261.72648335 158.99945523 -260.45296671 158.99891047 -259.14085865 158.99834919 C-228.91853339 158.9843088 -198.6963636 158.94457379 -168.47412362 158.87314438 C-164.75529182 158.8643775 -161.03645956 158.85582771 -157.31762695 158.84741211 C-156.57726604 158.84573305 -155.83690513 158.84405398 -155.07410904 158.84232404 C-143.08207324 158.8156452 -131.09008523 158.80655833 -119.0980228 158.80395857 C-106.79548672 158.80090045 -94.49308897 158.77897025 -82.19061536 158.73947543 C-74.59763327 158.71569575 -67.00492722 158.70668368 -59.411913 158.71648689 C-53.59219157 158.72242486 -47.77274871 158.70212161 -41.95309639 158.67193985 C-39.56378834 158.66367855 -37.17443333 158.66398936 -34.78512955 158.67340279 C-31.52829241 158.68496639 -28.2730262 158.66599381 -25.01631165 158.63923645 C-24.06592068 158.64990971 -23.11552971 158.66058297 -22.13633901 158.67157966 C-17.74295727 158.60401438 -15.6011044 158.41762577 -11.9139328 155.85591125 C-9.65316569 152.48246458 -9.3708295 150.70262989 -9.36076355 146.66618347 C-9.34547607 145.38877289 -9.3301886 144.1113623 -9.31443787 142.79524231 C-9.32268922 141.38717373 -9.33141794 139.97910789 -9.34057617 138.57104492 C-9.33212072 137.08262795 -9.32147558 135.59422204 -9.30880737 134.10583496 C-9.28066226 130.07098141 -9.28313226 126.0366595 -9.29110122 122.00173736 C-9.29422614 117.78292355 -9.26919238 113.56427911 -9.24714661 109.34553528 C-9.20969146 101.35937079 -9.19755775 93.37337659 -9.1945222 85.38713294 C-9.18983296 76.29400031 -9.15691398 67.20103843 -9.12162435 58.10798109 C-9.04967288 39.40533717 -9.01317037 20.70277302 -9 2 C-3.375 -1.125 -3.375 -1.125 0 0 Z " fill="#EBEEF0" transform="translate(453,186)"/>
<path d="M0 0 C0.93138639 -0.00467997 1.86277277 -0.00935994 2.82238299 -0.01418173 C5.93296886 -0.02611599 9.04311289 -0.01668046 12.15370178 -0.00723267 C14.38803362 -0.01129908 16.62236344 -0.01664135 18.85668945 -0.02316284 C24.91865242 -0.0368346 30.98046214 -0.03153806 37.04242778 -0.02202559 C43.38881387 -0.01442739 49.73518688 -0.02147514 56.08157349 -0.02618408 C67.42271692 -0.03199108 78.76378261 -0.02267026 90.1049105 -0.00740607 C100.37837024 0.00599334 110.65172826 0.00367105 120.92518616 -0.01016235 C132.86639326 -0.02623397 144.80753861 -0.03218362 156.74876028 -0.02332556 C163.06577691 -0.0186514 169.38272353 -0.01801714 175.69973564 -0.02793503 C181.63987885 -0.03660976 187.57983025 -0.03057327 193.51995277 -0.01325226 C195.69838518 -0.00928998 197.87683376 -0.01041701 200.0552597 -0.01704025 C203.03225531 -0.02525598 206.00863893 -0.01493341 208.9855957 0 C210.27418367 -0.01003825 210.27418367 -0.01003825 211.58880371 -0.02027929 C218.54593154 0.04726298 224.14989488 1.23055558 229.49378967 6.00595093 C230.17441467 6.78970093 230.85503967 7.57345093 231.55628967 8.38095093 C231.88628967 8.71095093 232.21628967 9.04095093 232.55628967 9.38095093 C232.55628967 14.99095093 232.55628967 20.60095093 232.55628967 26.38095093 C148.40628967 26.38095093 64.25628967 26.38095093 -22.44371033 26.38095093 C-22.44371033 10.38095093 -22.44371033 10.38095093 -19.88121033 6.06845093 C-14.28192981 0.52986722 -7.42549799 -0.05769566 0 0 Z " fill="#E9ECEE" transform="translate(156.44371032714844,444.6190490722656)"/>
<path d="M0 0 C3.96 0 7.92 0 12 0 C12.680625 2.5059375 12.680625 2.5059375 13.375 5.0625 C15.71645989 10.38213255 18.36412974 12.07010808 23.54541016 14.13061523 C26.67690201 15.23975015 29.82891221 16.2712877 32.99633789 17.27270508 C35 18 35 18 37.80859375 19.69921875 C40.27586987 21.16375163 41.27999927 21.2827039 44.0625 20.8125 C44.75085938 20.69777344 45.43921875 20.58304687 46.1484375 20.46484375 C48.11468769 20.04568694 48.11468769 20.04568694 50.1875 18.875 C52 18 52 18 54.4375 18.0625 C58.03143628 19.37735474 59.72784388 20.92590643 62 24 C61.93839546 27.51145862 61.56103361 29.97143839 59.875 33.0625 C58.56648794 35.95991955 59.31354533 37.92747296 60 41 C60.87105632 43.11197654 61.81314152 45.19562256 62.8125 47.25 C64.78581754 51.30780789 66.38366419 55.18830534 67.6875 59.5 C69.3489236 63.9160783 71.50500546 65.18412127 75.75 67.125 C77.4825 67.74375 79.215 68.3625 81 69 C81 72.96 81 76.92 81 81 C79.2675 81.474375 77.535 81.94875 75.75 82.4375 C71.63517549 83.90915965 71.63517549 83.90915965 68.5546875 86.84765625 C67.53926501 89.1984873 66.7654793 91.55621632 66 94 C65.1215255 96.17376272 64.22519557 98.3403823 63.3125 100.5 C62.89613281 101.5209375 62.47976562 102.541875 62.05078125 103.59375 C61 106 61 106 60 107 C59.80010237 108.99990516 59.80010237 108.99990516 59.8125 111.3125 C59.79832031 112.09238281 59.78414062 112.87226563 59.76953125 113.67578125 C60.02205635 116.2224327 60.77770372 117.77551444 62 120 C62.5 122.375 62.5 122.375 62 125 C60.3281178 127.49052797 58.52841821 129.37582247 56 131 C52.65289386 131 50.57742087 130.26650194 47.5625 128.875 C41.17785897 126.69487867 35.54131126 129.92883393 29.8515625 132.6875 C27.12349417 133.94315885 24.41060097 134.87153449 21.5625 135.8125 C17.84612567 137.25185768 16.24798011 138.49363993 14.4375 142.0625 C13.91729393 143.35928163 13.43365297 144.67176732 13 146 C12.67 146.99 12.34 147.98 12 149 C8.04 149 4.08 149 0 149 C-0.495 147.30875 -0.99 145.6175 -1.5 143.875 C-3.69377559 138.95006862 -5.81455394 137.15172544 -10.67041016 135.28222656 C-13.48469913 134.336646 -16.31338545 133.45173376 -19.15771484 132.60107422 C-21.46221501 131.84919516 -23.51405033 130.80959118 -25.625 129.625 C-29.21997731 127.894085 -31.08058551 127.40356736 -35 128 C-36.03125 128.515625 -37.0625 129.03125 -38.125 129.5625 C-41 131 -41 131 -42.9765625 130.78125 C-45.33952153 129.86891061 -46.52640587 128.77861191 -48.25 126.9375 C-48.77078125 126.38964844 -49.2915625 125.84179688 -49.828125 125.27734375 C-50.21484375 124.85582031 -50.6015625 124.43429687 -51 124 C-50.67515625 123.14728516 -50.67515625 123.14728516 -50.34375 122.27734375 C-47.38489885 114.13151128 -47.38489885 114.13151128 -48.94921875 105.80078125 C-49.80277912 104.12866456 -50.68629929 102.47161906 -51.59375 100.828125 C-53.16577614 97.66660576 -54.1308631 94.49114327 -55.1875 91.125 C-56.88033933 86.4821845 -56.88033933 86.4821845 -60.50390625 83.3203125 C-62.98949092 82.35153554 -65.41243545 81.63251578 -68 81 C-69 80 -69 80 -69.09765625 77.27734375 C-69.08605469 76.17519531 -69.07445313 75.07304687 -69.0625 73.9375 C-69.05347656 72.83277344 -69.04445313 71.72804688 -69.03515625 70.58984375 C-69.02355469 69.73519531 -69.01195313 68.88054687 -69 68 C-67.96939453 67.65388672 -67.96939453 67.65388672 -66.91796875 67.30078125 C-66.01691406 66.97464844 -65.11585937 66.64851563 -64.1875 66.3125 C-63.29417969 65.99925781 -62.40085937 65.68601562 -61.48046875 65.36328125 C-56.59791585 62.67979942 -55.33894823 57.56656105 -53.5 52.5625 C-52.25970895 49.19542782 -51.002577 46.00503686 -49.3671875 42.80859375 C-47.63428813 39.24872333 -47.57982017 36.92167839 -48 33 C-48.53625 31.948125 -49.0725 30.89625 -49.625 29.8125 C-51 27 -51 27 -50.5 24.9375 C-48.44778086 22.28671695 -46.6400477 20.10003794 -44 18 C-40.82557782 18.06478413 -38.80428854 18.53299375 -36.0625 20.125 C-31.96115252 21.8649656 -27.72027362 20.28949626 -23.75390625 18.6953125 C-22.70074219 18.17710937 -21.64757812 17.65890625 -20.5625 17.125 C-16.86536166 15.33386623 -13.28709954 13.6885041 -9.375 12.4375 C-5.48832563 10.78206462 -4.67612349 9.7933321 -3 6 C-2.443125 4.906875 -1.88625 3.81375 -1.3125 2.6875 C-0.879375 1.800625 -0.44625 0.91375 0 0 Z M-33 41 C-35.68968357 44.5045778 -37.91390864 48.10884512 -40 52 C-40.43570313 52.78375 -40.87140625 53.5675 -41.3203125 54.375 C-46.47774378 65.62757734 -45.74043139 81.227411 -41.9375 92.8125 C-39.46418501 98.65091679 -36.28890485 103.35756286 -32 108 C-31.47792969 108.61230469 -30.95585938 109.22460938 -30.41796875 109.85546875 C-22.09830962 119.02531202 -10.64203314 124.24275723 1.56640625 125.3125 C16.33227791 125.79712348 28.89112209 121.35200077 40.125 111.875 C50.54773509 102.06727101 55.9403612 90.14390928 56.47045898 75.87084961 C56.56858435 67.58047259 55.88740472 60.47205206 52 53 C51.57589844 52.15308594 51.15179688 51.30617188 50.71484375 50.43359375 C43.75223717 37.73023078 32.70255299 29.33914178 19 25 C-0.37048252 21.21069904 -19.51913019 26.27042958 -33 41 Z " fill="#FADD74" transform="translate(93,279)"/>
<path d="M0 0 C3.96 0 7.92 0 12 0 C12.680625 2.5059375 12.680625 2.5059375 13.375 5.0625 C15.71645989 10.38213255 18.36412974 12.07010808 23.54541016 14.13061523 C26.67750134 15.23996243 29.83000609 16.27188622 32.99829102 17.27270508 C35 18 35 18 37.77734375 19.69921875 C40.39081378 21.22871879 41.60544797 21.24962943 44.5625 20.8125 C45.30628906 20.71582031 46.05007813 20.61914062 46.81640625 20.51953125 C49.04711066 20.0908378 49.04711066 20.0908378 51.02734375 18.88671875 C53 18 53 18 55.04296875 18.19921875 C57.2654511 19.10861772 58.60034219 20.13433043 60.3125 21.8125 C60.84488281 22.31394531 61.37726563 22.81539062 61.92578125 23.33203125 C63 25 63 25 62.734375 27.0546875 C62.19030593 28.49589173 61.58065096 29.91270086 60.9375 31.3125 C59.32944053 35.92227048 59.23230444 39.26360342 61.23828125 43.80078125 C62.29930637 45.87280798 63.3792138 47.93526033 64.4765625 49.98828125 C66.15779144 53.31194154 67.28105763 56.57774113 68.26171875 60.16015625 C69.5151309 63.28373892 71.3078389 64.64256275 74.26171875 66.16796875 C75.06222656 66.50441406 75.86273438 66.84085937 76.6875 67.1875 C78.110625 67.785625 79.53375 68.38375 81 69 C81 72.96 81 76.92 81 81 C78.49348958 81.91145833 75.98697917 82.82291667 73.48046875 83.734375 C68.33337413 86.3606091 67.25398077 90.66993597 65.5 95.9375 C64.02997313 100.342869 62.3946841 104.03850831 60 108 C59.3221292 113.87488026 60.93960638 118.59146674 63 124 C60.83580851 126.56757629 58.66249669 128.9428597 56 131 C52.66149808 131.06546082 50.91970835 130.5340242 48.0625 128.875 C44.71974901 127.45686322 42.5056031 128.15187022 39 129 C36.4969137 130.16530236 34.07012752 131.43745508 31.6328125 132.734375 C28.22946801 134.3704041 24.78563826 135.32265122 21.12890625 136.2265625 C17.65348042 137.48919427 16.39143904 139.16868298 14.83203125 142.48046875 C14.49558594 143.37378906 14.15914063 144.26710937 13.8125 145.1875 C13.214375 146.775625 12.61625 148.36375 12 150 C8.04 150 4.08 150 0 150 C-4 140.25 -4 140.25 -4 138 C-4.82177734 137.79697266 -4.82177734 137.79697266 -5.66015625 137.58984375 C-12.04338023 135.85651301 -17.74186033 133.36117745 -23.55688477 130.24975586 C-28.11270679 127.95512902 -31.07456368 127.80044724 -36 129 C-37.051875 129.556875 -37.051875 129.556875 -38.125 130.125 C-40 131 -40 131 -42.375 131.0625 C-46.3547949 129.45163064 -48.44752651 126.35944106 -51 123 C-50.69964844 122.41992188 -50.39929688 121.83984375 -50.08984375 121.2421875 C-49.70957031 120.46101563 -49.32929688 119.67984375 -48.9375 118.875 C-48.55464844 118.10929687 -48.17179687 117.34359375 -47.77734375 116.5546875 C-46.11284934 111.08443955 -48.45280836 106.6425861 -50.875 101.75 C-52.88850933 97.60927729 -54.35648309 93.87157608 -55.3125 89.375 C-56.10493684 86.41176647 -56.41532229 85.35124706 -59.07421875 83.75390625 C-61.38131725 82.97744315 -63.60973259 82.44601004 -66 82 C-66.99 81.67 -67.98 81.34 -69 81 C-69 77.04 -69 73.08 -69 69 C-66.215625 68.01 -66.215625 68.01 -63.375 67 C-58.24024067 64.49007641 -56.15181557 62.27176666 -54.15673828 57.09960938 C-53.45898458 55.00208502 -52.80957692 52.89729966 -52.18359375 50.77734375 C-51 47 -51 47 -49.3671875 44.2890625 C-47.8518622 41.751975 -47.62145946 40.35852397 -47.6875 37.4375 C-47.69330078 36.32181641 -47.69330078 36.32181641 -47.69921875 35.18359375 C-48.03190709 32.76836282 -48.87612064 31.14477375 -50 29 C-50 25.10669775 -48.57813123 23.34061649 -45.9375 20.6875 C-44.968125 19.800625 -43.99875 18.91375 -43 18 C-37.25 19.875 -37.25 19.875 -35 21 C-29.37553903 21.47971299 -25.47785288 20.22437457 -20.5625 17.6875 C-16.55658613 15.67814699 -12.74677007 13.82420636 -8.375 12.75 C-2.98068477 9.95294766 -2.09765081 5.57188496 0 0 Z M-32.1875 40.703125 C-35.70329885 45.15849078 -38.44212823 49.94515816 -41 55 C-41.36351562 55.70511719 -41.72703125 56.41023438 -42.1015625 57.13671875 C-46.71284067 68.10466544 -44.99705897 83.51632581 -40.6953125 94.2578125 C-34.51146641 107.9569548 -24.93315678 117.05587963 -11 123 C-5.55292253 124.90935072 -0.75858109 125.30768183 4.9375 125.25 C5.69740234 125.25773437 6.45730469 125.26546875 7.24023438 125.2734375 C20.53582916 125.22802129 33.48419847 119.44008084 43.0390625 110.22265625 C52.77032269 99.19260236 57.42555431 86.12956911 57.27734375 71.5390625 C56.22020304 58.04935146 49.71938473 45.5807756 39.97265625 36.36328125 C31.94389488 29.98036321 22.3652644 24.74152747 12 24 C10.49373047 23.88011719 10.49373047 23.88011719 8.95703125 23.7578125 C-6.46473417 23.13136086 -21.62460387 29.34801166 -32.1875 40.703125 Z " fill="#FADD75" transform="translate(407,41)"/>
<path d="M0 0 C7.27492724 5.21369785 12.18087623 11.821214 14.53125 20.4921875 C15.68316538 31.86583623 14.79478099 41.83772342 7.4765625 51.08984375 C3.06974351 55.77876015 -1.43077686 59.23816658 -7.46875 61.4921875 C-8.41105469 61.84539062 -9.35335937 62.19859375 -10.32421875 62.5625 C-19.14413113 65.17012627 -27.52587391 63.89791162 -35.7421875 60.0390625 C-44.5417293 55.04677231 -50.05580161 48.15913899 -53.28125 38.6171875 C-56.01364345 28.33145352 -54.50662639 19.4879004 -49.18359375 10.265625 C-37.53069015 -6.54831389 -17.55553838 -10.72221173 0 0 Z " fill="#E9ECEE" transform="translate(118.46875,324.5078125)"/>
<path d="M0 0 C7.22593672 5.08627695 11.71661764 11.99760267 14.99609375 20.125 C16.75063973 30.84722541 15.16868058 40.91488472 8.74609375 49.9375 C7.71551398 51.17317027 6.65325674 52.38322538 5.55859375 53.5625 C4.78902344 54.39394531 4.78902344 54.39394531 4.00390625 55.2421875 C-2.77392066 61.76057606 -10.84452038 63.785289 -20.06640625 64.0625 C-26.39980832 63.86999538 -31.08743544 62.94561935 -36.44140625 59.5625 C-37.48554688 58.92634766 -37.48554688 58.92634766 -38.55078125 58.27734375 C-43.95342886 54.63157215 -47.3012764 50.22647254 -50.44140625 44.5625 C-50.78300781 43.97082031 -51.12460937 43.37914062 -51.4765625 42.76953125 C-55.06902077 35.20030522 -54.83083292 25.02088008 -52.375 17.140625 C-47.87234009 7.47278846 -41.36041049 0.53847216 -31.44140625 -3.4375 C-30.53390625 -3.85 -29.62640625 -4.2625 -28.69140625 -4.6875 C-18.36765107 -7.06990504 -9.06385513 -5.3367979 0 0 Z " fill="#E9ECEE" transform="translate(432.44140625,86.4375)"/>
<path d="M0 0 C0.83004555 -0.0039821 1.6600911 -0.00796419 2.51528955 -0.01206696 C3.87520819 -0.00332844 3.87520819 -0.00332844 5.26259995 0.00558662 C6.71330403 0.00302335 6.71330403 0.00302335 8.19331527 0.00040829 C11.44237603 -0.00289272 14.69123146 0.00812726 17.94027328 0.01904488 C20.26595683 0.01960886 22.59164073 0.01929269 24.91732407 0.01815987 C31.23923068 0.01758484 37.56106176 0.02936339 43.88295078 0.04330778 C49.81790876 0.05452611 55.75286375 0.056553 61.6878309 0.05861153 C73.44321659 0.06298881 85.19857453 0.07629882 96.95394516 0.09521675 C108.37321458 0.11357468 119.79247646 0.12773161 131.21175766 0.13623238 C131.91563772 0.13675782 132.61951778 0.13728327 133.34472755 0.13782464 C136.87588578 0.14043471 140.40704406 0.14296213 143.93820238 0.14544845 C173.23285589 0.16618199 202.52748226 0.20155711 231.82210922 0.24609566 C232.81210922 4.70109566 232.81210922 4.70109566 233.82210922 9.24609566 C232.61651289 9.24756222 231.41091656 9.24902878 230.168787 9.25053978 C201.55101921 9.28624098 172.93334062 9.34248099 144.31566768 9.42401661 C140.79340122 9.43403408 137.27113429 9.44387821 133.74886703 9.45361519 C133.04764643 9.45555656 132.34642582 9.45749793 131.6239561 9.45949814 C120.2695605 9.4905201 108.91518511 9.50749933 97.56075512 9.51928988 C85.9102389 9.53170044 74.25983481 9.55949712 62.60938466 9.60070872 C56.06539732 9.62336883 49.52156148 9.6390036 42.97753143 9.63797951 C36.81991172 9.6372356 30.66262748 9.65507853 24.50509453 9.68726349 C22.24359987 9.69579213 19.98206771 9.69749243 17.72056389 9.69189835 C14.63503 9.68528177 11.55057077 9.7031238 8.46514511 9.72711372 C7.11980141 9.7154731 7.11980141 9.7154731 5.74727905 9.70359731 C0.29833734 9.77870137 -2.88102527 10.5748508 -7.17789078 14.24609566 C-9.39249841 17.56800711 -9.42806437 18.58354588 -9.42944717 22.45036507 C-9.43752144 24.06734795 -9.43752144 24.06734795 -9.44575882 25.71699715 C-9.44163483 26.89988823 -9.43751083 28.08277931 -9.43326187 29.30151558 C-9.43869255 31.17021309 -9.43869255 31.17021309 -9.44423294 33.07666206 C-9.45113711 35.78754219 -9.45451281 38.49817413 -9.45228577 41.20903778 C-9.44945207 45.50037428 -9.46380824 49.79154619 -9.48126602 54.08284187 C-9.52828273 66.28607889 -9.55222166 78.48930531 -9.55875015 90.69262886 C-9.56250769 97.43189018 -9.58059532 104.17096576 -9.61384451 110.91014749 C-9.63400612 115.17064023 -9.63645436 119.43065217 -9.62556434 123.69117296 C-9.62233124 126.97542325 -9.64507855 130.25951529 -9.66373062 133.54370308 C-9.65555817 134.71647301 -9.64738571 135.88924294 -9.63896561 137.09755135 C-9.69762451 142.9093653 -10.19968435 147.58415157 -12.73502922 152.8450079 C-14.92405194 154.97065393 -17.22650733 154.94024698 -20.17789078 155.24609566 C-20.27142552 137.39133857 -20.34191468 119.53664526 -20.38513947 101.68169594 C-20.40574497 93.3909046 -20.43382691 85.1002657 -20.47964859 76.80957222 C-20.51957818 69.58149756 -20.54533822 62.35353332 -20.55424476 55.12535143 C-20.5594492 51.29975301 -20.57163907 47.47447043 -20.600811 43.64897346 C-20.62807721 40.04398411 -20.63631342 36.43943899 -20.6303215 32.83435631 C-20.63193674 30.88921869 -20.65340076 28.94412883 -20.67557144 26.9991169 C-20.63738602 18.85911709 -19.75894772 13.26079621 -14.17789078 7.00390816 C-13.51789078 6.46508003 -12.85789078 5.92625191 -12.17789078 5.37109566 C-11.51789078 4.81679878 -10.85789078 4.26250191 -10.17789078 3.69140816 C-6.80138775 1.25135714 -4.19839756 -0.0044569 0 0 Z " fill="#E8EBED" transform="translate(90.17789077758789,123.75390434265137)"/>
<path d="M0 0 C35.97 0 71.94 0 109 0 C109 10.56 109 21.12 109 32 C73.03 32 37.06 32 0 32 C0 21.44 0 10.88 0 0 Z " fill="#A69AA6" transform="translate(207,397)"/>
<path d="M0 0 C2.59765625 1.546875 2.59765625 1.546875 5.0625 3.75 C6.00222656 4.56984375 6.94195312 5.3896875 7.91015625 6.234375 C8.40789551 6.68103516 8.90563477 7.12769531 9.41845703 7.58789062 C11.6522898 9.5824088 13.93046721 11.52339705 16.20751953 13.46826172 C17.40722956 14.49345659 18.60480913 15.5211496 19.80029297 16.55126953 C23.38251961 19.63675551 27.00859107 22.6545828 30.6875 25.625 C32.46251335 27.07824273 34.23325648 28.53671461 36 30 C36.75385986 30.62285889 36.75385986 30.62285889 37.52294922 31.25830078 C39.0719753 32.55148896 40.60019622 33.86588733 42.125 35.1875 C43.49011719 36.35345703 43.49011719 36.35345703 44.8828125 37.54296875 C47.40416422 40.46903929 47.90853417 42.16351645 48 46 C46.85373367 49.78615242 44.37018808 51.55625114 41.3125 53.9375 C36.60433967 57.68304826 32.02859095 61.53942325 27.5 65.5 C22.23492514 70.08810822 16.93919841 74.61612561 11.4921875 78.98828125 C9.82781545 80.33177907 8.18678181 81.70470193 6.5703125 83.10546875 C3.00524154 86.11237203 0.84743112 87.84718455 -3.8125 88.6875 C-7 88 -7 88 -9.4375 86.4375 C-11.63021887 83.01685857 -11.63007693 80.99048721 -11 77 C-8.78515625 74.57421875 -8.78515625 74.57421875 -6 72 C-5.17242187 71.22140625 -4.34484375 70.4428125 -3.4921875 69.640625 C3.73655113 63.03765778 11.19115104 56.79096505 18.87890625 50.73046875 C20.23822266 49.65732422 20.23822266 49.65732422 21.625 48.5625 C22.44226563 47.92441406 23.25953125 47.28632813 24.1015625 46.62890625 C26.09638567 45.1302192 26.09638567 45.1302192 27 43 C26.40775635 42.72615479 25.8155127 42.45230957 25.20532227 42.17016602 C23.07882035 41.04182286 21.50894637 39.86920306 19.71484375 38.27734375 C19.10705078 37.74310791 18.49925781 37.20887207 17.87304688 36.65844727 C17.23431641 36.09053467 16.59558594 35.52262207 15.9375 34.9375 C14.59350594 33.75660726 13.24844627 32.57692624 11.90234375 31.3984375 C11.24089355 30.81932617 10.57944336 30.24021484 9.89794922 29.64355469 C6.45623213 26.66315342 2.91712912 23.80715409 -0.6171875 20.9375 C-9.74033149 13.51933702 -9.74033149 13.51933702 -11 11 C-11.35519903 7.16385043 -11.54724594 4.85370366 -9.4375 1.5625 C-6.08645637 -0.58560489 -3.93062922 -0.35618708 0 0 Z " fill="#030304" transform="translate(304,195)"/>
<path d="M0 0 C2.4375 1.5 2.4375 1.5 4 4 C4.78704983 10.99043347 4.78704983 10.99043347 1.76171875 14.87109375 C0.75718782 15.75020444 -0.26907827 16.60492022 -1.3125 17.4375 C-2.12956421 18.13552734 -2.12956421 18.13552734 -2.96313477 18.84765625 C-4.62346003 20.25615469 -6.30761882 21.63028876 -8 23 C-8.92039063 23.76441406 -9.84078125 24.52882812 -10.7890625 25.31640625 C-12.55425414 26.77177812 -14.32774522 28.21714198 -16.109375 29.65234375 C-19.50695698 32.41173127 -22.85023321 35.23071425 -26.1875 38.0625 C-27.05362915 38.79726562 -27.05362915 38.79726562 -27.93725586 39.546875 C-29.29212523 40.69718526 -30.6461579 41.84848089 -32 43 C-30.44791004 47.10399246 -27.49651052 49.3782407 -24.1875 52.0625 C-23.01027953 53.03759487 -21.83320028 54.01286026 -20.65625 54.98828125 C-20.05167969 55.48537598 -19.44710937 55.9824707 -18.82421875 56.49462891 C-15.37154011 59.34382812 -11.95511591 62.23663745 -8.5546875 65.14794922 C-6.2129869 67.15007439 -3.86255361 69.10411978 -1.40625 70.96484375 C3.67076098 74.90667798 3.67076098 74.90667798 4.62109375 78.0625 C4.82431397 81.41255459 4.20418868 83.67329812 2.4375 86.5 C-0.95695967 88.58889826 -3.05531373 88.41718672 -7 88 C-9.34492463 86.45760047 -11.11700208 85.08151507 -13.125 83.1875 C-14.2600312 82.17274576 -15.39545931 81.15843534 -16.53125 80.14453125 C-17.10488281 79.62197754 -17.67851562 79.09942383 -18.26953125 78.56103516 C-20.99867058 76.09911122 -23.81161412 73.73958885 -26.625 71.375 C-27.16374756 70.91843018 -27.70249512 70.46186035 -28.25756836 69.99145508 C-31.70007255 67.07608271 -35.1821329 64.21479107 -38.6875 61.375 C-39.5640625 60.65183594 -40.440625 59.92867187 -41.34375 59.18359375 C-43.17977577 57.67427257 -45.03543324 56.18863228 -46.90625 54.72265625 C-54.63780199 48.37018727 -54.63780199 48.37018727 -55.3125 44.0625 C-54.43038021 37.71123753 -47.64614236 33.71110621 -43 30 C-42.113125 29.26910156 -41.22625 28.53820312 -40.3125 27.78515625 C-38.53166066 26.31967387 -36.74362639 24.86289948 -34.94921875 23.4140625 C-31.5862596 20.66133568 -28.2920519 17.83668264 -25 15 C-23.81132071 13.98423129 -22.62251992 12.96860474 -21.43359375 11.953125 C-19.23499274 10.07229775 -17.06351081 8.16674756 -14.91015625 6.234375 C-13.97042969 5.41453125 -13.03070313 4.5946875 -12.0625 3.75 C-11.24910156 3.02296875 -10.43570313 2.2959375 -9.59765625 1.546875 C-6.20516432 -0.47331568 -3.88403369 -0.3820361 0 0 Z " fill="#030304" transform="translate(226,195)"/>
<path d="M0 0 C2.9375 2 2.9375 2 5 5 C4.63059045 12.22867317 2.59209147 19.19821381 0.8125 26.1875 C0.50006348 27.42693359 0.18762695 28.66636719 -0.13427734 29.94335938 C-2.23214003 38.19020326 -4.48199933 46.38062536 -6.86987305 54.54760742 C-8.5535039 60.33442136 -10.07032977 66.14556913 -11.5 72 C-13.23837624 79.10377856 -15.11646808 86.1551463 -17.125 93.1875 C-17.36669922 94.03634766 -17.60839844 94.88519531 -17.85742188 95.75976562 C-18.55528305 98.17838037 -19.27354061 100.58983507 -20 103 C-20.24459961 103.83869629 -20.48919922 104.67739258 -20.74121094 105.54150391 C-20.9890332 106.34894043 -21.23685547 107.15637695 -21.4921875 107.98828125 C-21.70987793 108.71184814 -21.92756836 109.43541504 -22.15185547 110.1809082 C-23 112 -23 112 -26 114 C-29.80121737 114.41467826 -32.10847173 114.52577308 -35.4375 112.5625 C-38.12569756 108.15385601 -37.4643665 103.20799559 -36.43432617 98.31030273 C-35.6361887 95.33387744 -34.76959148 92.38635579 -33.875 89.4375 C-33.22619805 87.21831367 -32.58044041 84.99823537 -31.9375 82.77734375 C-31.61136719 81.65312012 -31.28523437 80.52889648 -30.94921875 79.37060547 C-29.46784311 74.1103503 -28.16807709 68.80911711 -26.875 63.5 C-25.06467448 56.11090414 -23.1225723 48.80140887 -20.89624023 41.52734375 C-18.70265432 34.24986175 -16.95138098 26.86080851 -15.23046875 19.45898438 C-10.21378487 -1.42992988 -10.21378487 -1.42992988 0 0 Z " fill="#040405" transform="translate(278,182)"/>
<path d="M0 0 C9.24 0 18.48 0 28 0 C28 40.59 28 81.18 28 123 C-55.82 123 -139.64 123 -226 123 C-226 122.67 -226 122.34 -226 122 C-145.48 122 -64.96 122 18 122 C18 82.07 18 42.14 18 1 C12.06 1 6.12 1 0 1 C0 0.67 0 0.34 0 0 Z " fill="#B7D1EA" transform="translate(400,206)"/>
<path d="M0 0 C0.33 0 0.66 0 1 0 C1.42945787 7.01447862 -0.22003581 11.47838407 -4.25 17.1875 C-7.9096681 20.93034238 -11.10162536 23.71339836 -16.44921875 24.2421875 C-18.64901068 24.24909423 -20.80812496 24.17892857 -23 24 C-20.68635707 22.45757138 -18.61395515 21.2968427 -16.125 20.125 C-8.13162187 16.12100437 -3.80990472 10.82641259 -0.6875 2.5 C-0.460625 1.675 -0.23375 0.85 0 0 Z " fill="#C9C9CE" transform="translate(452,356)"/>
</svg>
